<svg width="261" height="50" viewBox="0 0 261 50" fill="none" xmlns="http://www.w3.org/2000/svg">
<path d="M47.7773 48.535C45.9804 47.6271 44.5654 46.2748 43.5511 44.4716C42.5306 42.6747 42.0234 40.4646 42.0234 37.8475V23.2344C42.0234 19.3464 43.1128 16.3662 45.2979 14.2938C47.4767 12.2214 50.3505 11.1884 53.913 11.1884H70.5984C74.1609 11.1884 77.0034 12.1964 79.1321 14.2124C81.2608 16.2284 82.3252 19.1648 82.3252 23.0216V49.9061H76.6528V23.0216C76.6528 20.6612 76.0142 19.0521 74.7432 18.1944C73.4722 17.3429 71.8694 16.9109 69.9473 16.9109H54.3513C52.4604 16.9109 50.8702 17.3366 49.5804 18.1944C48.2907 19.0459 47.6458 20.6549 47.6458 23.0216V38.0729C47.6458 40.4395 48.2907 42.0423 49.5804 42.9001C50.8702 43.7516 52.4604 44.1836 54.3513 44.1836H69.4026V49.9124H53.9693C51.6403 49.9124 49.5804 49.4553 47.7773 48.5475V48.535Z" fill="white"/>
<path d="M90.3643 14.3689C92.5118 12.2401 95.3292 11.1758 98.8166 11.1758H115.615C117.906 11.1758 119.929 11.6516 121.694 12.5908C123.46 13.5362 124.837 14.9261 125.839 16.7606C126.841 18.595 127.342 20.8051 127.342 23.3846V49.8873H121.725V23.0027C121.725 20.6423 121.081 19.0333 119.791 18.1755C118.501 17.324 116.911 16.892 115.02 16.892H99.4802C97.5894 16.892 95.9992 17.3178 94.7094 18.1755C93.4196 19.027 92.7748 20.6361 92.7748 23.0027V49.8873H87.1587V23.3846C87.1587 19.4966 88.2293 16.4851 90.3768 14.3563L90.3643 14.3689Z" fill="white"/>
<path d="M137.916 48.5349C136.12 47.6271 134.705 46.2747 133.69 44.4715C132.67 42.6747 132.163 40.4833 132.163 37.8975V23.1718C132.163 19.3213 133.252 16.3536 135.437 14.2812C137.616 12.2088 140.49 11.1758 144.052 11.1758H161.395C165.101 11.1758 167.975 12.1212 170.01 14.012C172.045 15.9028 173.065 18.7954 173.065 22.6834V23.7728C173.065 27.9176 172.064 30.879 170.066 32.6634C168.069 34.4478 165.177 35.3368 161.395 35.3368H145.035V29.608H160.738C162.265 29.608 163.511 29.4515 164.475 29.1447C165.44 28.8379 166.172 28.2244 166.686 27.3165C167.193 26.4087 167.449 25.1001 167.449 23.3909C167.449 21.5752 167.174 20.1853 166.629 19.2211C166.084 18.2569 165.346 17.6308 164.419 17.3428C163.492 17.0548 162.303 16.9046 160.844 16.9046H144.484C142.518 16.9046 140.909 17.3303 139.657 18.1881C138.405 19.0395 137.779 20.6486 137.779 23.0152V38.0666C137.779 40.4332 138.424 42.036 139.713 42.8938C141.003 43.7453 142.593 44.1773 144.484 44.1773H171.475V49.9061H144.102C141.773 49.9061 139.713 49.449 137.91 48.5412L137.916 48.5349Z" fill="white"/>
<path d="M180.497 46.8695C178.369 44.8535 177.304 41.9171 177.304 38.0604V3.5437H182.92V38.0604C182.92 40.4583 183.565 42.0799 184.855 42.9126C186.145 43.7516 187.735 44.1648 189.626 44.1648H213.186V49.8936H189.031C185.468 49.8936 182.626 48.8855 180.497 46.8695Z" fill="white"/>
<path d="M218.726 46.8695C216.598 44.8535 215.533 41.9171 215.533 38.0604V3.5437H221.149V38.0604C221.149 40.4583 221.794 42.0799 223.084 42.9126C224.374 43.7516 225.964 44.1648 227.855 44.1648H251.415V49.8936H227.26C223.697 49.8936 220.855 48.8855 218.726 46.8695Z" fill="white"/>
<path d="M244.885 11.1758H182.025V16.9046H244.885V11.1758Z" fill="white"/>
<path d="M255.372 0H260.988V6.16078H255.372V0ZM255.372 11.1758H260.988V49.8936H255.372V11.1758Z" fill="white"/>
<g clip-path="url(#clip0_42_38)">
<path d="M0.0628096 50C-0.0123219 46.7192 -0.0060609 43.7703 0.0189829 41.0969C0.0252439 40.1014 0.0690706 37.691 1.24613 35.7814C2.06632 34.454 3.21207 33.4085 4.6834 32.6446C6.15472 31.8808 8.2584 31.0982 10.9819 30.2968L27.3981 25.5009C29.145 24.9937 30.4535 24.5367 31.3238 24.136C32.1314 23.7666 32.77 23.4034 33.2584 22.721C33.8031 21.9572 33.897 21.1057 33.8845 20.5422V16.8858C31.7245 16.8858 29.5582 16.8858 27.3981 16.8858H0.557425V11.2697H39.7134C39.7635 14.563 39.7448 17.5244 39.7134 20.2104C39.7009 21.1996 39.6571 23.5224 38.5113 25.4195C37.7099 26.7468 36.5955 27.7924 35.1555 28.5562C33.7217 29.3201 31.6744 30.1027 29.0197 30.9041L12.3343 35.7C10.5499 36.2447 9.22885 36.708 8.35232 37.0899C7.55717 37.4405 7.09386 37.741 6.76203 38.0854C6.69942 38.148 6.56794 38.292 6.44272 38.4798C5.90428 39.2562 5.82915 40.1515 5.84167 40.715C5.84167 41.9359 5.84167 43.1505 5.84167 44.3714C7.89527 44.3714 9.95512 44.3714 12.0087 44.3714H39.1687V49.9875H11.1384C7.44448 49.9875 3.75051 49.9937 0.0628096 50Z" fill="white"/>
</g>
<defs>
<clipPath id="clip0_42_38">
<rect width="39.7446" height="38.7303" fill="white" transform="translate(0 11.2697)"/>
</clipPath>
</defs>
</svg>
